<svg width="20" height="20" viewBox="0 0 20 20" fill="none" xmlns="http://www.w3.org/2000/svg">
<path opacity="0.4" d="M15.8999 13.0999C15.4082 10.1583 12.5832 7.7666 9.5999 7.7666C6.35824 7.7666 3.50824 10.3916 3.23324 13.6249C3.1249 14.8749 3.5249 16.0583 4.3499 16.9499C5.16657 17.8416 6.31657 18.3333 7.56657 18.3333H11.4666C12.8749 18.3333 14.1082 17.7833 14.9499 16.7916C15.7916 15.7999 16.1249 14.4833 15.8999 13.0999Z" fill="#99FF99"/>
<path d="M8.56667 6.55002C9.91516 6.55002 11.0083 5.45685 11.0083 4.10835C11.0083 2.75986 9.91516 1.66669 8.56667 1.66669C7.21817 1.66669 6.125 2.75986 6.125 4.10835C6.125 5.45685 7.21817 6.55002 8.56667 6.55002Z" fill="#111111"/>
<path d="M14.1168 7.52504C15.2398 7.52504 16.1502 6.61469 16.1502 5.49171C16.1502 4.36873 15.2398 3.45837 14.1168 3.45837C12.9939 3.45837 12.0835 4.36873 12.0835 5.49171C12.0835 6.61469 12.9939 7.52504 14.1168 7.52504Z" fill="#111111"/>
<path d="M17.125 10.775C18.0225 10.775 18.75 10.0475 18.75 9.15002C18.75 8.25256 18.0225 7.52502 17.125 7.52502C16.2275 7.52502 15.5 8.25256 15.5 9.15002C15.5 10.0475 16.2275 10.775 17.125 10.775Z" fill="#111111"/>
<path d="M3.28333 9.14998C4.40631 9.14998 5.31667 8.23963 5.31667 7.11665C5.31667 5.99367 4.40631 5.08331 3.28333 5.08331C2.16035 5.08331 1.25 5.99367 1.25 7.11665C1.25 8.23963 2.16035 9.14998 3.28333 9.14998Z" fill="#111111"/>
</svg>
