<svg width="20" height="20" viewBox="0 0 20 20" fill="none" xmlns="http://www.w3.org/2000/svg">
<path opacity="0.4" d="M9.99984 18.3334C14.6022 18.3334 18.3332 14.6024 18.3332 10C18.3332 5.39765 14.6022 1.66669 9.99984 1.66669C5.39746 1.66669 1.6665 5.39765 1.6665 10C1.6665 14.6024 5.39746 18.3334 9.99984 18.3334Z" fill="#99FF99"/>
<path d="M10 11.875C11.0355 11.875 11.875 11.0355 11.875 10C11.875 8.96447 11.0355 8.125 10 8.125C8.96447 8.125 8.125 8.96447 8.125 10C8.125 11.0355 8.96447 11.875 10 11.875Z" fill="#111111"/>
<path d="M5.83317 10.625H4.1665C3.82484 10.625 3.5415 10.3417 3.5415 10C3.5415 9.65833 3.82484 9.375 4.1665 9.375H5.83317C6.17484 9.375 6.45817 9.65833 6.45817 10C6.45817 10.3417 6.17484 10.625 5.83317 10.625Z" fill="#111111"/>
<path d="M15.8332 10.625H14.1665C13.8248 10.625 13.5415 10.3417 13.5415 10C13.5415 9.65833 13.8248 9.375 14.1665 9.375H15.8332C16.1748 9.375 16.4582 9.65833 16.4582 10C16.4582 10.3417 16.1748 10.625 15.8332 10.625Z" fill="#111111"/>
</svg>
