<svg width="20" height="20" viewBox="0 0 20 20" fill="none" xmlns="http://www.w3.org/2000/svg">
<path d="M18.3333 6.89169V3.52502C18.3333 2.20002 17.8 1.66669 16.475 1.66669H13.1083C11.7833 1.66669 11.25 2.20002 11.25 3.52502V6.89169C11.25 8.21669 11.7833 8.75002 13.1083 8.75002H16.475C17.8 8.75002 18.3333 8.21669 18.3333 6.89169Z" fill="#C3F1CD" stroke="#111111" stroke-linecap="round" stroke-linejoin="round"/>
<path d="M8.74984 7.10002V3.31669C8.74984 2.14169 8.2165 1.66669 6.8915 1.66669H3.52484C2.19984 1.66669 1.6665 2.14169 1.6665 3.31669V7.09169C1.6665 8.27502 2.19984 8.74169 3.52484 8.74169H6.8915C8.2165 8.75002 8.74984 8.27502 8.74984 7.10002Z" fill="#C3F1CD" stroke="#111111" stroke-linecap="round" stroke-linejoin="round"/>
<path d="M8.74984 16.475V13.1083C8.74984 11.7833 8.2165 11.25 6.8915 11.25H3.52484C2.19984 11.25 1.6665 11.7833 1.6665 13.1083V16.475C1.6665 17.8 2.19984 18.3333 3.52484 18.3333H6.8915C8.2165 18.3333 8.74984 17.8 8.74984 16.475Z" fill="#C3F1CD" stroke="#111111" stroke-linecap="round" stroke-linejoin="round"/>
<path d="M12.0835 14.5833H17.0835" stroke="#111111" stroke-linecap="round"/>
<path d="M14.5835 17.0833V12.0833" stroke="#111111" stroke-linecap="round"/>
</svg>
