<svg width="16" height="16" viewBox="0 0 16 16" fill="none" xmlns="http://www.w3.org/2000/svg">
<path d="M14.6667 5.51334V2.82001C14.6667 1.76001 14.24 1.33334 13.18 1.33334H10.4867C9.42667 1.33334 9 1.76001 9 2.82001V5.51334C9 6.57334 9.42667 7.00001 10.4867 7.00001H13.18C14.24 7.00001 14.6667 6.57334 14.6667 5.51334Z" stroke="#111111" stroke-linecap="round" stroke-linejoin="round"/>
<path d="M7.00016 5.68001V2.65334C7.00016 1.71334 6.5735 1.33334 5.5135 1.33334H2.82016C1.76016 1.33334 1.3335 1.71334 1.3335 2.65334V5.67334C1.3335 6.62001 1.76016 6.99334 2.82016 6.99334H5.5135C6.5735 7.00001 7.00016 6.62001 7.00016 5.68001Z" stroke="#111111" stroke-linecap="round" stroke-linejoin="round"/>
<path d="M7.00016 13.18V10.4867C7.00016 9.42667 6.5735 9 5.5135 9H2.82016C1.76016 9 1.3335 9.42667 1.3335 10.4867V13.18C1.3335 14.24 1.76016 14.6667 2.82016 14.6667H5.5135C6.5735 14.6667 7.00016 14.24 7.00016 13.18Z" stroke="#111111" stroke-linecap="round" stroke-linejoin="round"/>
<path d="M10 10.3333H14" stroke="#111111" stroke-linecap="round"/>
<path d="M10 13H14" stroke="#111111" stroke-linecap="round"/>
</svg>
