<svg width="18" height="18" viewBox="0 0 18 18" fill="none" xmlns="http://www.w3.org/2000/svg">
<path d="M4.58249 13.1251C2.92499 11.5726 1.5 9.3601 1.5 6.5101C1.5 4.1926 3.3675 2.31763 5.67 2.31763C7.035 2.31763 8.2425 2.97762 9 3.99762C9.7575 2.97762 10.9725 2.31763 12.33 2.31763C13.1925 2.31763 13.995 2.5801 14.6625 3.0376" fill="#111111"/>
<path d="M4.58249 13.1251C2.92499 11.5726 1.5 9.3601 1.5 6.5101C1.5 4.1926 3.3675 2.31763 5.67 2.31763C7.035 2.31763 8.2425 2.97762 9 3.99762C9.7575 2.97762 10.9725 2.31763 12.33 2.31763C13.1925 2.31763 13.995 2.5801 14.6625 3.0376" stroke="#111111" stroke-linecap="round" stroke-linejoin="round"/>
<path d="M16.3051 5.25012C16.4326 5.64762 16.5001 6.07512 16.5001 6.51762C16.5001 11.7676 11.6401 14.8651 9.46512 15.6151C9.21012 15.7051 8.79013 15.7051 8.53513 15.6151C8.04763 15.4501 7.43264 15.1651 6.76514 14.7676" stroke="#111111" stroke-linecap="round" stroke-linejoin="round"/>
<path d="M16.5 1.49988L1.5 16.4999" stroke="#111111" stroke-linecap="round" stroke-linejoin="round"/>
</svg>
