<svg width="18" height="18" viewBox="0 0 18 18" fill="none" xmlns="http://www.w3.org/2000/svg">
<path d="M15.3793 2.28462C13.7241 0.761539 11.7241 0 9.24137 0C6.68965 0 4.48275 0.83077 2.68965 2.56154C0.896547 4.29231 0 6.43846 0 9C0 11.4923 0.827594 13.5692 2.55173 15.3692C4.27587 17.1692 6.55173 18 9.51725 18C11.2414 18 12.9655 17.6538 14.6897 16.8923C15.2414 16.6846 15.5172 15.9923 15.3103 15.4385C15.1035 14.8846 14.4138 14.6077 13.8621 14.8154C12.4138 15.4385 10.9655 15.7846 9.5862 15.7846C7.3793 15.7846 5.65517 15.0923 4.41379 13.7077C3.17241 12.3231 2.55173 10.7308 2.55173 8.93077C2.55173 6.92308 3.24138 5.26154 4.48276 3.94615C5.7931 2.63077 7.37931 1.93846 9.31034 1.93846C11.0345 1.93846 12.5517 2.49231 13.7931 3.6C15.0345 4.70769 15.5862 6.09231 15.5862 7.75384C15.5862 8.86154 15.3103 9.83077 14.7586 10.5923C14.2069 11.3538 13.6552 11.7 13.0345 11.7C12.6896 11.7 12.5517 11.5615 12.5517 11.1462C12.5517 10.8692 12.5517 10.5231 12.6207 10.1769L13.3104 4.56923H10.9655L10.8276 5.12308C10.2069 4.63846 9.5862 4.36154 8.89655 4.36154C7.7931 4.36154 6.82759 4.84615 6.00001 5.74615C5.17242 6.64615 4.82759 7.82308 4.82759 9.20769C4.82759 10.5923 5.17242 11.7 5.93104 12.6C6.62069 13.4308 7.51725 13.8462 8.48277 13.8462C9.37932 13.8462 10.1379 13.5 10.7586 12.7385C11.2414 13.4308 11.931 13.8462 12.8966 13.8462C14.2759 13.8462 15.4483 13.2231 16.4827 12.0462C17.5172 10.8692 18 9.41538 18 7.68462C17.7931 5.60769 16.9655 3.73846 15.3793 2.28462ZM9.93103 10.7308C9.51723 11.2846 9.03449 11.5615 8.4138 11.5615C8.00001 11.5615 7.72415 11.3538 7.44829 10.9385C7.17242 10.5231 7.10346 10.0385 7.10346 9.41538C7.10346 8.65385 7.24138 8.03077 7.58621 7.61539C7.93103 7.13077 8.34484 6.92308 8.8276 6.92308C9.24139 6.92308 9.65517 7.06154 10 7.47692C10.3448 7.82308 10.4828 8.30769 10.4828 8.86154C10.5517 9.55385 10.3448 10.1769 9.93103 10.7308Z" fill="#F59124"/>
</svg>
