<svg width="19" height="19" viewBox="0 0 19 19" fill="none" xmlns="http://www.w3.org/2000/svg">
<path d="M16.2962 0H2.70384C1.16923 0 0 1.16923 0 2.70385V16.2962C0 17.8308 1.16923 19 2.70384 19H16.2962C17.8308 19 19 17.8308 19 16.2962V2.70385C19 1.16923 17.8308 0 16.2962 0ZM9.5 15.2C12.6423 15.2 15.2 12.7154 15.2 9.71923C15.2 9.20769 15.1269 8.62308 14.9808 8.18462H16.5885V15.9308C16.5885 16.2962 16.2962 16.6615 15.8577 16.6615H3.14231C2.77693 16.6615 2.41154 16.3692 2.41154 15.9308V8.11154H4.09231C3.94616 8.62308 3.87308 9.13462 3.87308 9.64615C3.8 12.7154 6.35769 15.2 9.5 15.2ZM9.5 13.0077C7.45385 13.0077 5.84615 11.4 5.84615 9.42692C5.84615 7.45385 7.45385 5.84615 9.5 5.84615C11.5462 5.84615 13.1538 7.45385 13.1538 9.42692C13.1538 11.4731 11.5462 13.0077 9.5 13.0077ZM16.5154 5.18846C16.5154 5.62692 16.15 5.99231 15.7115 5.99231H13.6654C13.2269 5.99231 12.8615 5.62692 12.8615 5.18846V3.21538C12.8615 2.77692 13.2269 2.41154 13.6654 2.41154H15.7115C16.15 2.41154 16.5154 2.77692 16.5154 3.21538V5.18846Z" fill="url(#paint0_linear_22_1711)"/>
<defs>
<linearGradient id="paint0_linear_22_1711" x1="4.0375" y1="16.8625" x2="16.625" y2="3.8" gradientUnits="userSpaceOnUse">
<stop stop-color="#EEA054"/>
<stop offset="0.502762" stop-color="#D64763"/>
<stop offset="1" stop-color="#B62A99"/>
</linearGradient>
</defs>
</svg>
