<svg width="28" height="24" viewBox="0 0 28 24" fill="none" xmlns="http://www.w3.org/2000/svg">
<path d="M24.2439 4.95384e-07L3.75612 0C1.67773 0 0 1.597 0 3.56623L0 16.6664C0 18.6356 1.67773 20.2326 3.75612 20.2326H4.70767C5.7093 20.2326 9.3924 20.6049 10.0935 21.2773L12.2345 23.3066C13.2111 24.2311 14.8012 24.2311 15.7778 23.3066L17.9188 21.2773C18.6199 20.6049 22.3157 20.2326 23.3048 20.2326H24.2439C26.3223 20.2326 28 18.6356 28 16.6664L28 3.56623C28 1.597 26.3223 4.95384e-07 24.2439 4.95384e-07Z" fill="#6D1E8B"/>
</svg>
