<svg width="20" height="20" viewBox="0 0 20 20" fill="none" xmlns="http://www.w3.org/2000/svg">
<path d="M14.1665 15.3583H10.8332L7.12483 17.825C6.57483 18.1916 5.83317 17.8 5.83317 17.1334V15.3583C3.33317 15.3583 1.6665 13.6917 1.6665 11.1917V6.19163C1.6665 3.69163 3.33317 2.02496 5.83317 2.02496H14.1665C16.6665 2.02496 18.3332 3.69163 18.3332 6.19163V11.1917C18.3332 13.6917 16.6665 15.3583 14.1665 15.3583Z" fill="#C3F1CD" stroke="#111111" stroke-miterlimit="10" stroke-linecap="round" stroke-linejoin="round"/>
<path d="M10 9.46667V9.29171C10 8.72504 10.35 8.42503 10.7 8.18336C11.0417 7.95003 11.3833 7.65004 11.3833 7.10004C11.3833 6.33337 10.7667 5.71667 10 5.71667C9.23334 5.71667 8.6167 6.33337 8.6167 7.10004" stroke="#111111" stroke-linecap="round" stroke-linejoin="round"/>
<path d="M9.99641 11.4584H10.0039" stroke="#111111" stroke-linecap="round" stroke-linejoin="round"/>
</svg>
