<svg class="action-svg" width="24" height="24" viewBox="0 0 24 24" fill="none" xmlns="http://www.w3.org/2000/svg">
<path d="M9.61251 12.6L8.83248 13.38C8.36248 13.85 7.60253 13.85 7.13253 13.38L6.3525 12.6C5.8825 12.13 5.8825 11.37 6.3525 10.9L7.13253 10.12C7.60253 9.65005 8.36248 9.65005 8.83248 10.12L9.61251 10.9C10.0825 11.37 10.0825 12.13 9.61251 12.6Z" fill="#777777" stroke="#777777" stroke-linecap="round" stroke-linejoin="round"/>
<path d="M14.2324 4.3L14.2324 3.2C14.2324 2.54 14.7724 2 15.4324 2L16.5324 2C17.1924 2 17.7325 2.54 17.7325 3.2L17.7325 4.3C17.7325 4.96 17.1924 5.5 16.5324 5.5L15.4324 5.5C14.7724 5.5 14.2324 4.96 14.2324 4.3Z" fill="#777777" stroke="#777777" stroke-linecap="round" stroke-linejoin="round"/>
<path d="M14.2324 19.2L14.2324 20.3C14.2324 20.96 14.7724 21.5 15.4324 21.5L16.5324 21.5C17.1924 21.5 17.7325 20.96 17.7325 20.3L17.7325 19.2C17.7325 18.54 17.1924 18 16.5324 18L15.4324 18C14.7724 18 14.2324 18.54 14.2324 19.2Z" fill="#777777" stroke="#777777" stroke-linecap="round" stroke-linejoin="round"/>
<path d="M14.5226 5.21001L9.22266 10.51Z" fill="#777777"/>
<path d="M14.5226 5.21001L9.22266 10.51" stroke="#777777" stroke-linecap="round" stroke-linejoin="round"/>
<path d="M14.5226 18.29L9.22266 12.99Z" fill="#777777"/>
<path d="M14.5226 18.29L9.22266 12.99" stroke="#777777" stroke-linecap="round" stroke-linejoin="round"/>
</svg>
