<svg width="19" height="17" viewBox="0 0 19 17" fill="none" xmlns="http://www.w3.org/2000/svg">
<path d="M0.333166 8.15986L4.70136 9.83055L6.4042 15.4501C6.47824 15.8298 6.92246 15.9057 7.21861 15.6779L9.66182 13.6275C9.88393 13.3997 10.2541 13.3997 10.5503 13.6275L14.9184 16.893C15.2146 17.1208 15.6588 16.9689 15.7329 16.5892L18.9905 0.641807C19.0645 0.262107 18.6943 -0.11759 18.3241 0.0342903L0.333166 7.17265C-0.111055 7.32453 -0.111055 8.00798 0.333166 8.15986ZM6.1821 8.9952L14.7704 3.60347C14.9184 3.52753 15.0665 3.75535 14.9184 3.83129L7.88494 10.5899C7.66283 10.8178 7.44071 11.1215 7.44071 11.5012L7.21861 13.3238C7.21861 13.5516 6.84842 13.6275 6.77438 13.3238L5.88593 9.98242C5.66382 9.60273 5.81191 9.14708 6.1821 8.9952Z" fill="#2F89CE"/>
</svg>
