<svg width="19" height="11" viewBox="0 0 19 11" fill="none" xmlns="http://www.w3.org/2000/svg">
<path d="M18.8235 9.86986C18.8235 9.79452 18.7479 9.79452 18.7479 9.71918C18.4455 9.11644 17.7652 8.36302 16.858 7.53425C16.4044 7.15754 16.1776 6.85616 16.0264 6.70548C15.7997 6.40411 15.7997 6.17809 15.8753 5.87672C15.9509 5.65069 16.2532 5.27397 16.7824 4.59589C17.0848 4.21917 17.236 3.99315 17.4628 3.76713C18.5967 2.26028 19.1259 1.28082 18.9747 0.828761L18.8991 0.753425C18.8235 0.678083 18.7479 0.602742 18.5967 0.602742C18.4455 0.5274 18.2187 0.5274 17.992 0.602742H15.1193C15.0437 0.602742 15.0437 0.602742 14.8925 0.602742C14.8169 0.602742 14.7413 0.602742 14.7413 0.602742H14.6657H14.5901L14.5145 0.678078C14.4389 0.753421 14.4389 0.753418 14.4389 0.828761C14.1365 1.65753 13.7585 2.33561 13.3806 3.08904C13.1538 3.46575 12.927 3.84247 12.7002 4.14384C12.4734 4.44521 12.3222 4.67123 12.171 4.82192C12.0198 4.9726 11.8686 5.04794 11.793 5.19863C11.7174 5.27397 11.5663 5.34932 11.5663 5.27398C11.4907 5.27398 11.4151 5.27397 11.4151 5.19863C11.3395 5.12329 11.2639 5.04794 11.1883 4.9726C11.1127 4.89726 11.1127 4.74657 11.0371 4.59589C11.0371 4.4452 11.0371 4.29452 11.0371 4.21917C11.0371 4.14383 11.0371 3.91781 11.0371 3.76713C11.0371 3.5411 11.0371 3.39041 11.0371 3.31507C11.0371 3.08904 11.0371 2.78768 11.0371 2.48631C11.0371 2.18494 11.0371 1.9589 11.0371 1.80822C11.0371 1.65753 11.0371 1.43151 11.0371 1.28082C11.0371 1.05479 11.0371 0.904103 11.0371 0.828761C11.0371 0.753418 10.9615 0.602738 10.9615 0.527395C10.8859 0.452053 10.8103 0.376708 10.7347 0.301365C10.6591 0.226023 10.5079 0.226025 10.4323 0.150683C10.0543 0.0753402 9.60076 0 9.07158 0C7.86204 0 7.03047 0.0753448 6.72809 0.22603C6.5769 0.301372 6.4257 0.37671 6.35011 0.527395C6.19891 0.67808 6.19891 0.753425 6.27451 0.753425C6.65249 0.828768 6.95488 0.979446 7.10607 1.20547L7.18167 1.35617C7.25727 1.43151 7.25725 1.58219 7.33285 1.80822C7.40845 2.03424 7.40845 2.26027 7.40845 2.56164C7.40845 3.0137 7.40845 3.46576 7.40845 3.76713C7.40845 4.14384 7.33285 4.36986 7.33285 4.59589C7.33285 4.82191 7.25727 4.9726 7.18167 5.04795C7.10608 5.19863 7.10607 5.27398 7.03047 5.27398C7.03047 5.27398 7.03047 5.34931 6.95487 5.34931C6.87927 5.34931 6.80368 5.42466 6.65249 5.42466C6.57689 5.42466 6.4257 5.34932 6.35011 5.27398C6.19891 5.19863 6.04772 5.04795 5.97212 4.89726C5.82093 4.74658 5.66973 4.52054 5.51854 4.21917C5.36735 3.9178 5.14055 3.61644 4.98936 3.16438L4.83818 2.86302C4.76258 2.71233 4.61139 2.41096 4.4602 2.03425C4.309 1.65753 4.15781 1.35617 4.00661 0.979455C3.93102 0.82877 3.85543 0.753421 3.77983 0.678078H3.70423C3.70423 0.678078 3.62863 0.602742 3.55303 0.602742C3.47743 0.602742 3.40185 0.527395 3.32625 0.527395H0.604774C0.302388 0.527395 0.151197 0.602736 0.075601 0.678078L0 0.753425C0 0.753425 0 0.828765 0 0.904108C0 0.97945 4.61291e-06 1.05479 0.075601 1.20547C0.453583 2.10958 0.907159 3.0137 1.36074 3.91781C1.81432 4.74658 2.2679 5.5 2.57029 6.0274C2.94827 6.5548 3.25065 7.0822 3.62863 7.53425C4.00661 7.98631 4.2334 8.28767 4.30899 8.43836C4.46019 8.58904 4.53578 8.66438 4.61138 8.73972L4.83818 8.96575C4.98937 9.11644 5.21616 9.34247 5.51854 9.5685C5.82093 9.79452 6.1989 10.0205 6.57689 10.2466C6.95487 10.4726 7.40846 10.6233 7.86204 10.774C8.39121 10.9247 8.84478 11 9.29836 10.9247H10.4323C10.6591 10.9247 10.8103 10.8493 10.9615 10.6986L11.0371 10.6233C11.0371 10.5479 11.1127 10.5479 11.1127 10.4726C11.1127 10.3973 11.1127 10.3219 11.1127 10.1712C11.1127 9.86987 11.1127 9.64384 11.1883 9.41781C11.2639 9.19179 11.2639 9.0411 11.3395 8.89042C11.4151 8.73973 11.4907 8.66438 11.5663 8.58904C11.6419 8.5137 11.7175 8.43836 11.7175 8.43836H11.793C11.9442 8.36302 12.171 8.43836 12.3222 8.58904C12.549 8.73973 12.7758 8.96576 12.927 9.19178C13.0782 9.41781 13.305 9.64384 13.6074 9.94521C13.9098 10.2466 14.1365 10.4726 14.2877 10.548L14.5145 10.6986C14.6657 10.774 14.8169 10.8493 15.0437 10.9247C15.2705 11 15.4217 11 15.5729 11L18.1432 10.9247C18.3699 10.9247 18.5967 10.8493 18.7479 10.774C18.8991 10.6986 18.9747 10.6233 18.9747 10.4726C18.9747 10.3973 18.9747 10.2466 18.9747 10.1712C18.8235 10.0206 18.8235 9.9452 18.8235 9.86986Z" fill="#7294C7"/>
</svg>
