<svg width="19" height="14" viewBox="0 0 19 14" fill="none" xmlns="http://www.w3.org/2000/svg">
<path d="M19 5.37373C19 4.94949 18.9307 4.45454 18.9307 3.88889C18.8613 3.32323 18.792 2.75757 18.7226 2.26262C18.5839 1.69697 18.3759 1.27273 17.9599 0.919194C17.6131 0.565659 17.1277 0.353531 16.6423 0.282824C15.0474 0.0707027 12.6898 0 9.50001 0C6.31023 0 3.88321 0.0707027 2.35766 0.282824C1.87226 0.353531 1.38686 0.565659 1.04015 0.919194C0.693431 1.27273 0.416054 1.69697 0.277368 2.26262C0.138682 2.75757 0.0693473 3.25252 0.0693473 3.88889C4.23133e-06 4.45454 0 4.94949 0 5.37373C0 5.79797 0 6.29292 0 6.99999C0 7.70707 0 8.27272 0 8.62626C0 9.0505 0.0693473 9.54545 0.0693473 10.1111C0.13869 10.6768 0.208025 11.2424 0.277368 11.7374C0.416054 12.303 0.624088 12.7273 1.04015 13.0808C1.38686 13.4343 1.87226 13.6465 2.35766 13.7172C3.95255 13.9293 6.31023 14 9.50001 14C12.6898 14 15.1168 13.9293 16.6423 13.7172C17.1277 13.6465 17.6131 13.4343 17.9599 13.0808C18.3066 12.7273 18.5839 12.303 18.7226 11.7374C18.8613 11.2424 18.9307 10.7475 18.9307 10.1111C19 9.54545 19 9.0505 19 8.62626C19 8.20202 19 7.70707 19 6.99999C19 6.29292 19 5.72727 19 5.37373ZM13.1752 7.56565L7.69709 11.0303C7.62774 11.101 7.48906 11.1717 7.35037 11.1717C7.21169 11.1717 7.14234 11.1717 7.00366 11.101C6.79563 10.9596 6.65694 10.7475 6.65694 10.4646V3.46464C6.65694 3.18181 6.79563 2.9697 7.00366 2.82828C7.21169 2.68687 7.48906 2.68687 7.69709 2.82828L13.1752 6.29292C13.3832 6.43434 13.5219 6.64646 13.5219 6.85858C13.5219 7.0707 13.3832 7.42424 13.1752 7.56565Z" fill="#F40000"/>
</svg>
