<svg width="20" height="20" fill="none" xmlns="http://www.w3.org/2000/svg"><path opacity=".4" d="M15.9 13.1c-.492-2.942-3.317-5.333-6.3-5.333-3.242 0-6.092 2.625-6.367 5.858-.108 1.25.292 2.433 1.117 3.325.817.892 1.967 1.383 3.217 1.383h3.9c1.408 0 2.641-.55 3.483-1.541.842-.992 1.175-2.309.95-3.692Z" fill="#9F9"/><path d="M8.567 6.55a2.442 2.442 0 1 0 0-4.883 2.442 2.442 0 0 0 0 4.883Zm5.55.975a2.033 2.033 0 1 0 0-4.067 2.033 2.033 0 0 0 0 4.067Zm3.008 3.25a1.625 1.625 0 1 0 0-3.25 1.625 1.625 0 0 0 0 3.25ZM3.283 9.15a2.033 2.033 0 1 0 0-4.067 2.033 2.033 0 0 0 0 4.067Z" fill="#111"/></svg>