<svg width="20" height="20" fill="none" xmlns="http://www.w3.org/2000/svg"><path d="M18.333 6.892V3.525c0-1.325-.533-1.858-1.858-1.858h-3.367c-1.325 0-1.858.533-1.858 1.858v3.367c0 1.325.533 1.858 1.858 1.858h3.367c1.325 0 1.858-.533 1.858-1.858ZM8.75 7.1V3.317c0-1.175-.534-1.65-1.859-1.65H3.525c-1.325 0-1.858.475-1.858 1.65v3.775c0 1.183.533 1.65 1.858 1.65H6.89c1.326.008 1.86-.467 1.86-1.642Zm0 9.375v-3.367c0-1.325-.534-1.858-1.859-1.858H3.525c-1.325 0-1.858.533-1.858 1.858v3.367c0 1.325.533 1.858 1.858 1.858H6.89c1.325 0 1.859-.533 1.859-1.858Z" fill="#C3F1CD" stroke="#111" stroke-linecap="round" stroke-linejoin="round"/><path d="M12.084 14.583h5m-2.5 2.5v-5" stroke="#111" stroke-linecap="round"/></svg>