<svg width="18" height="18" fill="none" xmlns="http://www.w3.org/2000/svg"><path d="M15.38 2.285C13.723.762 11.723 0 9.24 0 6.69 0 4.483.83 2.69 2.562.897 4.292 0 6.438 0 9c0 2.492.828 4.57 2.552 6.37 1.724 1.8 4 2.63 6.965 2.63a12.66 12.66 0 0 0 5.173-1.108c.551-.207.827-.9.62-1.454-.207-.553-.896-.83-1.448-.623-1.448.623-2.896.97-4.276.97-2.207 0-3.93-.693-5.172-2.077-1.242-1.385-1.862-2.977-1.862-4.777 0-2.008.69-3.67 1.93-4.985C5.794 2.631 7.38 1.938 9.31 1.938c1.724 0 3.242.554 4.483 1.662 1.242 1.108 1.793 2.492 1.793 4.154 0 1.108-.276 2.077-.827 2.838-.552.762-1.104 1.108-1.725 1.108-.344 0-.482-.138-.482-.554 0-.277 0-.623.069-.97l.69-5.607h-2.345l-.138.554c-.621-.485-1.242-.761-1.931-.761-1.104 0-2.07.484-2.897 1.384-.828.9-1.172 2.077-1.172 3.462 0 1.384.344 2.492 1.103 3.392.69.83 1.586 1.246 2.552 1.246.896 0 1.655-.346 2.276-1.107.482.692 1.172 1.107 2.138 1.107 1.379 0 2.551-.623 3.586-1.8C17.517 10.87 18 9.416 18 7.685c-.207-2.077-1.035-3.947-2.62-5.4ZM9.93 10.73c-.414.554-.897.83-1.517.83-.414 0-.69-.207-.966-.623-.276-.415-.345-.9-.345-1.523 0-.761.138-1.384.483-1.8.345-.484.759-.692 1.242-.692.413 0 .827.139 1.172.554.345.346.483.83.483 1.385.069.692-.138 1.315-.552 1.869Z" fill="#F59124"/></svg>