<svg width="20" height="20" fill="none" xmlns="http://www.w3.org/2000/svg"><path d="M7.083 15.833h-.417c-3.333 0-5-.833-5-5V6.667c0-3.334 1.667-5 5-5h6.667c3.333 0 5 1.666 5 5v4.166c0 3.334-1.666 5-5 5h-.417a.845.845 0 0 0-.666.334L11 17.833c-.55.734-1.45.734-2 0l-1.25-1.666c-.133-.184-.442-.334-.667-.334Z" fill="#C3F1CD" stroke="#111" stroke-miterlimit="10" stroke-linecap="round" stroke-linejoin="round"/><path d="M5.833 6.667h8.334m-8.334 4.166h5" stroke="#111" stroke-linecap="round" stroke-linejoin="round"/></svg>