<svg width="19" height="19" fill="none" xmlns="http://www.w3.org/2000/svg"><path d="M16.296 0H2.704C1.169 0 0 1.17 0 2.704v13.592C0 17.831 1.17 19 2.704 19h13.592C17.831 19 19 17.83 19 16.296V2.704C19 1.169 17.83 0 16.296 0ZM9.5 15.2c3.142 0 5.7-2.485 5.7-5.48 0-.512-.073-1.097-.22-1.535h1.608v7.746c0 .365-.292.73-.73.73H3.142a.732.732 0 0 1-.73-.73V8.11h1.68a5.563 5.563 0 0 0-.219 1.535C3.8 12.716 6.358 15.2 9.5 15.2Zm0-2.192c-2.046 0-3.654-1.608-3.654-3.581 0-1.973 1.608-3.58 3.654-3.58s3.654 1.607 3.654 3.58c0 2.046-1.608 3.58-3.654 3.58Zm7.015-7.82a.811.811 0 0 1-.804.804h-2.046a.811.811 0 0 1-.803-.804V3.215a.81.81 0 0 1 .803-.803h2.046a.81.81 0 0 1 .804.803v1.973Z" fill="url(#a)"/><defs><linearGradient id="a" x1="4.037" y1="16.863" x2="16.625" y2="3.8" gradientUnits="userSpaceOnUse"><stop stop-color="#EEA054"/><stop offset=".503" stop-color="#D64763"/><stop offset="1" stop-color="#B62A99"/></linearGradient></defs></svg>