<svg width="20" height="20" fill="none" xmlns="http://www.w3.org/2000/svg"><path d="M14.166 15.358h-3.333l-3.708 2.467a.83.83 0 0 1-1.292-.692v-1.775c-2.5 0-4.167-1.666-4.167-4.166v-5c0-2.5 1.667-4.167 4.167-4.167h8.334c2.5 0 4.166 1.667 4.166 4.167v5c0 2.5-1.666 4.166-4.166 4.166Z" fill="#C3F1CD" stroke="#111" stroke-miterlimit="10" stroke-linecap="round" stroke-linejoin="round"/><path d="M10 9.467v-.175c0-.567.35-.867.7-1.109.342-.233.683-.533.683-1.083A1.38 1.38 0 0 0 10 5.717 1.38 1.38 0 0 0 8.617 7.1m1.379 4.358h.008" stroke="#111" stroke-linecap="round" stroke-linejoin="round"/></svg>