<svg class="action-svg" width="24" height="24" fill="none" xmlns="http://www.w3.org/2000/svg"><path d="m9.613 12.6-.78.78c-.47.47-1.23.47-1.7 0l-.78-.78c-.47-.47-.47-1.23 0-1.7l.78-.78c.47-.47 1.23-.47 1.7 0l.78.78c.47.47.47 1.23 0 1.7Zm4.619-8.3V3.2c0-.66.54-1.2 1.2-1.2h1.1c.66 0 1.2.54 1.2 1.2v1.1c0 .66-.54 1.2-1.2 1.2h-1.1c-.66 0-1.2-.54-1.2-1.2Zm0 14.9v1.1c0 .66.54 1.2 1.2 1.2h1.1c.66 0 1.2-.54 1.2-1.2v-1.1c0-.66-.54-1.2-1.2-1.2h-1.1c-.66 0-1.2.54-1.2 1.2Z" fill="#777" stroke="#777" stroke-linecap="round" stroke-linejoin="round"/><path d="m14.523 5.21-5.3 5.3Z" fill="#777"/><path d="m14.523 5.21-5.3 5.3" stroke="#777" stroke-linecap="round" stroke-linejoin="round"/><path d="m14.523 18.29-5.3-5.3Z" fill="#777"/><path d="m14.523 18.29-5.3-5.3" stroke="#777" stroke-linecap="round" stroke-linejoin="round"/></svg>