<svg width="20" height="20" fill="none" xmlns="http://www.w3.org/2000/svg"><path d="M10 18.333a8.333 8.333 0 1 0 0-16.666 8.333 8.333 0 0 0 0 16.666Z" fill="#C3F1CD" stroke="#111" stroke-linecap="round" stroke-linejoin="round"/><path d="M10.275 14.542c-.15.05-.408.05-.558 0-1.3-.442-4.217-2.3-4.217-5.45A2.506 2.506 0 0 1 8 6.575c.817 0 1.542.392 2 1.008a2.493 2.493 0 0 1 2-1.008c1.383 0 2.5 1.125 2.5 2.517 0 3.15-2.917 5.008-4.225 5.45Z" fill="#C3F1CD" stroke="#111" stroke-linecap="round" stroke-linejoin="round"/></svg>