<svg width="19" height="11" fill="none" xmlns="http://www.w3.org/2000/svg"><path d="M18.823 9.87c0-.075-.075-.075-.075-.15-.303-.604-.983-1.357-1.89-2.186-.454-.376-.68-.678-.832-.829-.226-.3-.226-.527-.15-.828.075-.226.377-.603.906-1.281.303-.377.454-.603.68-.829C18.598 2.26 19.127 1.281 18.976.83L18.9.754c-.076-.075-.151-.15-.302-.15-.152-.076-.378-.076-.605 0H14.59l-.075.075c-.076.075-.076.075-.076.15-.303.83-.68 1.508-1.058 2.261-.227.377-.454.753-.68 1.055-.228.301-.379.527-.53.678-.151.15-.302.226-.378.377-.076.075-.227.15-.227.075-.075 0-.15 0-.15-.075l-.228-.226c-.075-.076-.075-.226-.15-.377V.829c0-.076-.077-.226-.077-.302l-.226-.226c-.076-.075-.227-.075-.303-.15A6.802 6.802 0 0 0 9.072 0C7.862 0 7.03.075 6.728.226c-.151.075-.302.15-.378.301-.15.151-.15.226-.075.226.377.076.68.226.831.452l.076.151c.075.076.075.226.15.452.076.226.076.452.076.754v1.205c0 .377-.075.603-.075.829 0 .226-.076.377-.151.452-.076.15-.076.226-.152.226 0 0 0 .075-.075.075-.076 0-.151.076-.303.076-.075 0-.226-.076-.302-.151a.91.91 0 0 1-.378-.377c-.151-.15-.302-.376-.453-.678-.152-.301-.378-.603-.53-1.055l-.15-.301c-.076-.15-.228-.452-.379-.829-.151-.376-.302-.678-.453-1.055a1.04 1.04 0 0 0-.227-.3h-.076S3.63.602 3.553.602 3.402.527 3.326.527H.605C.302.527.15.603.075.678L0 .753v.151c0 .075 0 .15.076.301.378.905.831 1.809 1.285 2.713.453.829.907 1.582 1.21 2.11.377.527.68 1.054 1.058 1.506.378.452.604.754.68.904l.302.302.227.226c.151.15.378.376.68.603.303.226.68.451 1.059.678.378.226.831.376 1.285.527.53.15.983.226 1.436.15h1.134a.687.687 0 0 0 .53-.225l.075-.076c0-.075.076-.075.076-.15v-.302c0-.301 0-.527.075-.753.076-.226.076-.377.151-.528a1.04 1.04 0 0 1 .227-.301l.151-.15h.076c.151-.076.378 0 .53.15.226.15.453.377.604.603.151.226.378.452.68.753.303.302.53.528.68.603l.227.15c.152.076.303.151.53.227.226.075.378.075.529.075l2.57-.075c.227 0 .454-.076.605-.151.151-.075.227-.15.227-.301v-.302c-.152-.15-.152-.226-.152-.301Z" fill="#7294C7"/></svg>