<svg width="20" height="20" fill="none" xmlns="http://www.w3.org/2000/svg"><path d="M17.073 2.917A9.932 9.932 0 0 0 10.035 0C4.53 0 .07 4.444.07 9.93c0 1.737.487 3.473 1.324 4.931L0 20l5.296-1.389a10.188 10.188 0 0 0 4.739 1.18c5.505 0 9.965-4.444 9.965-9.93-.07-2.57-1.045-5.07-2.927-6.944Zm-2.23 10.555c-.209.556-1.184 1.111-1.672 1.18-.418.07-.976.07-1.533-.069-.349-.139-.837-.277-1.394-.555-2.509-1.042-4.112-3.542-4.251-3.75-.14-.14-1.045-1.32-1.045-2.57 0-1.25.627-1.805.836-2.083.209-.278.488-.278.697-.278h.488c.139 0 .348-.07.557.417.21.486.697 1.736.767 1.805a.44.44 0 0 1 0 .417c-.07.139-.14.278-.28.417-.138.139-.278.347-.348.416-.139.14-.278.278-.139.487.14.277.627 1.041 1.394 1.736.975.833 1.742 1.11 2.02 1.25.28.139.419.07.558-.07.14-.139.627-.694.767-.972s.348-.208.557-.139c.21.07 1.464.695 1.673.833.279.14.418.209.488.278.07.209.07.695-.14 1.25Z" fill="#48C95F"/></svg>