<svg width="19" height="14" fill="none" xmlns="http://www.w3.org/2000/svg"><path d="M19 5.374c0-.425-.07-.92-.07-1.485a99.78 99.78 0 0 0-.207-1.626c-.14-.566-.347-.99-.763-1.344-.347-.353-.832-.565-1.318-.636C15.047.07 12.69 0 9.5 0 6.31 0 3.883.07 2.358.283c-.486.07-.971.283-1.318.636a2.834 2.834 0 0 0-.763 1.344C.14 2.758.07 3.253.07 3.889 0 4.455 0 4.949 0 5.374v3.252c0 .425.07.92.07 1.485.069.566.138 1.131.207 1.626.14.566.347.99.763 1.344.347.353.832.566 1.318.636C3.953 13.93 6.31 14 9.5 14c3.19 0 5.617-.07 7.142-.283.486-.07.971-.283 1.318-.636.347-.354.624-.778.763-1.344.138-.495.208-.99.208-1.626C19 9.545 19 9.051 19 8.626V5.374Zm-5.825 2.192L7.697 11.03a.524.524 0 0 1-.347.142c-.138 0-.208 0-.346-.071a.746.746 0 0 1-.347-.636v-7c0-.283.139-.495.347-.637a.62.62 0 0 1 .693 0l5.478 3.465c.208.141.347.353.347.566 0 .212-.139.565-.347.707Z" fill="#F40000"/></svg>